<svg xmlns="http://www.w3.org/2000/svg" xmlns:xlink="http://www.w3.org/1999/xlink" width="500" zoomAndPan="magnify" viewBox="0 0 375 374.999991" height="500" preserveAspectRatio="xMidYMid meet" version="1.0"><defs><g/><clipPath id="id1"><path d="M 199.664062 206.308594 L 244.664062 206.308594 L 244.664062 251.308594 L 199.664062 251.308594 Z M 199.664062 206.308594 " clip-rule="nonzero"/></clipPath><clipPath id="id2"><path d="M 230.6875 207.992188 L 230.6875 207.976562 C 230.675781 207.976562 230.667969 207.976562 230.65625 207.976562 C 228.035156 206.90625 225.167969 206.308594 222.164062 206.308594 C 209.757812 206.308594 199.664062 216.402344 199.664062 228.808594 C 199.664062 236.371094 203.414062 243.066406 209.152344 247.148438 C 209.152344 247.152344 209.15625 247.15625 209.160156 247.160156 L 209.164062 247.15625 C 212.839844 249.769531 217.324219 251.308594 222.164062 251.308594 C 230.601562 251.308594 237.964844 246.636719 241.816406 239.746094 L 241.816406 239.742188 C 243.625 236.503906 244.664062 232.777344 244.664062 228.808594 C 244.664062 219.417969 238.878906 211.355469 230.6875 207.992188 Z M 242.417969 220.804688 C 231.625 222.765625 220.109375 226.285156 211.417969 230.085938 C 210.953125 228.421875 210.617188 226.75 210.402344 225.089844 C 210.644531 224.984375 210.886719 224.871094 211.132812 224.746094 C 214.972656 222.816406 217.386719 219.558594 219.71875 216.410156 C 222.628906 212.480469 225.378906 208.769531 230.527344 208.695312 C 235.941406 210.957031 240.25 215.339844 242.417969 220.804688 Z M 228.953125 208.113281 C 224.449219 208.828125 221.863281 212.3125 219.144531 215.984375 C 216.863281 219.066406 214.5 222.253906 210.8125 224.109375 C 210.644531 224.195312 210.476562 224.273438 210.308594 224.351562 C 209.734375 218.980469 210.464844 213.761719 212.515625 209.28125 C 215.425781 207.839844 218.699219 207.023438 222.164062 207.023438 C 224.535156 207.023438 226.816406 207.410156 228.953125 208.113281 Z M 211.515625 209.8125 C 209.660156 214.28125 209.03125 219.394531 209.625 224.640625 C 207.753906 225.378906 206.117188 225.496094 204.761719 224.984375 C 203.40625 224.472656 202.351562 223.328125 201.613281 221.582031 C 203.382812 216.566406 206.9375 212.386719 211.515625 209.8125 Z M 201.289062 222.574219 C 202.085938 224.109375 203.164062 225.144531 204.507812 225.652344 C 205.144531 225.890625 205.832031 226.011719 206.558594 226.011719 C 207.535156 226.011719 208.589844 225.792969 209.714844 225.371094 C 209.941406 227.035156 210.285156 228.710938 210.753906 230.378906 C 206.96875 232.070312 203.757812 233.808594 201.429688 235.484375 C 200.75 233.378906 200.378906 231.136719 200.378906 228.808594 C 200.378906 226.640625 200.699219 224.550781 201.289062 222.574219 Z M 201.667969 236.191406 C 203.929688 234.539062 207.144531 232.796875 210.964844 231.09375 C 211.246094 232.023438 211.558594 232.949219 211.917969 233.875 C 212.132812 234.425781 212.359375 234.964844 212.59375 235.5 C 210.589844 236.285156 209.085938 237.710938 208.328125 239.582031 C 207.566406 241.449219 207.632812 243.597656 208.484375 245.75 C 205.417969 243.265625 203.035156 239.972656 201.667969 236.191406 Z M 209.703125 246.664062 C 208.417969 244.292969 208.164062 241.878906 208.988281 239.847656 C 209.675781 238.152344 211.054688 236.863281 212.898438 236.152344 C 215.921875 242.664062 220.523438 247.695312 225.851562 250.277344 C 224.652344 250.480469 223.421875 250.59375 222.164062 250.59375 C 217.53125 250.59375 213.238281 249.136719 209.703125 246.664062 Z M 227.039062 250.035156 C 221.507812 247.683594 216.695312 242.605469 213.574219 235.921875 C 219.007812 234.328125 223.058594 236 227.351562 237.773438 C 231.363281 239.433594 235.507812 241.140625 240.859375 239.976562 C 237.855469 244.988281 232.894531 248.691406 227.039062 250.035156 Z M 241.347656 239.125 C 235.902344 240.527344 231.691406 238.796875 227.621094 237.113281 C 223.390625 235.363281 219.019531 233.558594 213.3125 235.25 C 213.300781 235.253906 213.285156 235.261719 213.273438 235.265625 C 213.03125 234.722656 212.800781 234.175781 212.582031 233.613281 C 212.222656 232.683594 211.90625 231.742188 211.625 230.804688 C 220.355469 226.988281 232.027344 223.40625 242.679688 221.480469 C 243.5 223.773438 243.949219 226.238281 243.949219 228.808594 C 243.949219 232.539062 243.003906 236.050781 241.347656 239.125 Z M 241.347656 239.125 " clip-rule="nonzero"/></clipPath><linearGradient x1="63" gradientTransform="matrix(0.357143, 0, 0, 0.357143, 199.66296, 206.308815)" y1="0.000000570636" x2="63" gradientUnits="userSpaceOnUse" y2="125.999991" id="id3"><stop stop-opacity="1" stop-color="rgb(99.998474%, 56.898499%, 30.198669%)" offset="0"/><stop stop-opacity="1" stop-color="rgb(99.822998%, 56.802368%, 30.471802%)" offset="0.00390625"/><stop stop-opacity="1" stop-color="rgb(99.647522%, 56.706238%, 30.744934%)" offset="0.0078125"/><stop stop-opacity="1" stop-color="rgb(99.47052%, 56.610107%, 31.016541%)" offset="0.0117187"/><stop stop-opacity="1" stop-color="rgb(99.295044%, 56.513977%, 31.289673%)" offset="0.015625"/><stop stop-opacity="1" stop-color="rgb(99.118042%, 56.416321%, 31.562805%)" offset="0.0195312"/><stop stop-opacity="1" stop-color="rgb(98.942566%, 56.32019%, 31.835938%)" offset="0.0234375"/><stop stop-opacity="1" stop-color="rgb(98.765564%, 56.22406%, 32.107544%)" offset="0.0273438"/><stop stop-opacity="1" stop-color="rgb(98.590088%, 56.12793%, 32.380676%)" offset="0.03125"/><stop stop-opacity="1" stop-color="rgb(98.413086%, 56.030273%, 32.652283%)" offset="0.0351562"/><stop stop-opacity="1" stop-color="rgb(98.23761%, 55.934143%, 32.925415%)" offset="0.0390625"/><stop stop-opacity="1" stop-color="rgb(98.060608%, 55.838013%, 33.198547%)" offset="0.0429688"/><stop stop-opacity="1" stop-color="rgb(97.885132%, 55.741882%, 33.47168%)" offset="0.046875"/><stop stop-opacity="1" stop-color="rgb(97.70813%, 55.644226%, 33.743286%)" offset="0.0507813"/><stop stop-opacity="1" stop-color="rgb(97.532654%, 55.548096%, 34.016418%)" offset="0.0546875"/><stop stop-opacity="1" stop-color="rgb(97.355652%, 55.451965%, 34.288025%)" offset="0.0585938"/><stop stop-opacity="1" stop-color="rgb(97.180176%, 55.355835%, 34.561157%)" offset="0.0625"/><stop stop-opacity="1" stop-color="rgb(97.003174%, 55.258179%, 34.83429%)" offset="0.0664062"/><stop stop-opacity="1" stop-color="rgb(96.827698%, 55.162048%, 35.107422%)" offset="0.0703125"/><stop stop-opacity="1" stop-color="rgb(96.650696%, 55.065918%, 35.379028%)" offset="0.0742187"/><stop stop-opacity="1" stop-color="rgb(96.47522%, 54.969788%, 35.652161%)" offset="0.078125"/><stop stop-opacity="1" stop-color="rgb(96.298218%, 54.872131%, 35.925293%)" offset="0.0820312"/><stop stop-opacity="1" stop-color="rgb(96.122742%, 54.776001%, 36.198425%)" offset="0.0859375"/><stop stop-opacity="1" stop-color="rgb(95.947266%, 54.679871%, 36.470032%)" offset="0.0898437"/><stop stop-opacity="1" stop-color="rgb(95.77179%, 54.58374%, 36.743164%)" offset="0.09375"/><stop stop-opacity="1" stop-color="rgb(95.594788%, 54.486084%, 37.014771%)" offset="0.0976562"/><stop stop-opacity="1" stop-color="rgb(95.419312%, 54.389954%, 37.287903%)" offset="0.101562"/><stop stop-opacity="1" stop-color="rgb(95.24231%, 54.293823%, 37.561035%)" offset="0.105469"/><stop stop-opacity="1" stop-color="rgb(95.066833%, 54.197693%, 37.834167%)" offset="0.109375"/><stop stop-opacity="1" stop-color="rgb(94.889832%, 54.101562%, 38.105774%)" offset="0.113281"/><stop stop-opacity="1" stop-color="rgb(94.714355%, 54.005432%, 38.378906%)" offset="0.117188"/><stop stop-opacity="1" stop-color="rgb(94.537354%, 53.907776%, 38.650513%)" offset="0.121094"/><stop stop-opacity="1" stop-color="rgb(94.361877%, 53.811646%, 38.923645%)" offset="0.125"/><stop stop-opacity="1" stop-color="rgb(94.184875%, 53.715515%, 39.196777%)" offset="0.128906"/><stop stop-opacity="1" stop-color="rgb(94.009399%, 53.619385%, 39.46991%)" offset="0.132812"/><stop stop-opacity="1" stop-color="rgb(93.832397%, 53.521729%, 39.741516%)" offset="0.136719"/><stop stop-opacity="1" stop-color="rgb(93.656921%, 53.425598%, 40.014648%)" offset="0.140625"/><stop stop-opacity="1" stop-color="rgb(93.479919%, 53.329468%, 40.287781%)" offset="0.144531"/><stop stop-opacity="1" stop-color="rgb(93.304443%, 53.233337%, 40.560913%)" offset="0.148437"/><stop stop-opacity="1" stop-color="rgb(93.127441%, 53.135681%, 40.83252%)" offset="0.152344"/><stop stop-opacity="1" stop-color="rgb(92.951965%, 53.039551%, 41.105652%)" offset="0.15625"/><stop stop-opacity="1" stop-color="rgb(92.774963%, 52.94342%, 41.377258%)" offset="0.160156"/><stop stop-opacity="1" stop-color="rgb(92.599487%, 52.84729%, 41.650391%)" offset="0.164062"/><stop stop-opacity="1" stop-color="rgb(92.422485%, 52.749634%, 41.923523%)" offset="0.167969"/><stop stop-opacity="1" stop-color="rgb(92.247009%, 52.653503%, 42.196655%)" offset="0.171875"/><stop stop-opacity="1" stop-color="rgb(92.071533%, 52.557373%, 42.468262%)" offset="0.175781"/><stop stop-opacity="1" stop-color="rgb(91.896057%, 52.461243%, 42.741394%)" offset="0.179687"/><stop stop-opacity="1" stop-color="rgb(91.719055%, 52.363586%, 43.013%)" offset="0.183594"/><stop stop-opacity="1" stop-color="rgb(91.543579%, 52.267456%, 43.286133%)" offset="0.1875"/><stop stop-opacity="1" stop-color="rgb(91.366577%, 52.171326%, 43.559265%)" offset="0.191406"/><stop stop-opacity="1" stop-color="rgb(91.191101%, 52.075195%, 43.832397%)" offset="0.195312"/><stop stop-opacity="1" stop-color="rgb(91.014099%, 51.977539%, 44.104004%)" offset="0.199219"/><stop stop-opacity="1" stop-color="rgb(90.838623%, 51.881409%, 44.377136%)" offset="0.203125"/><stop stop-opacity="1" stop-color="rgb(90.661621%, 51.785278%, 44.650269%)" offset="0.207031"/><stop stop-opacity="1" stop-color="rgb(90.486145%, 51.689148%, 44.923401%)" offset="0.210938"/><stop stop-opacity="1" stop-color="rgb(90.309143%, 51.591492%, 45.195007%)" offset="0.214844"/><stop stop-opacity="1" stop-color="rgb(90.133667%, 51.495361%, 45.46814%)" offset="0.21875"/><stop stop-opacity="1" stop-color="rgb(89.956665%, 51.399231%, 45.739746%)" offset="0.222656"/><stop stop-opacity="1" stop-color="rgb(89.781189%, 51.303101%, 46.012878%)" offset="0.226562"/><stop stop-opacity="1" stop-color="rgb(89.604187%, 51.20697%, 46.286011%)" offset="0.230469"/><stop stop-opacity="1" stop-color="rgb(89.428711%, 51.11084%, 46.559143%)" offset="0.234375"/><stop stop-opacity="1" stop-color="rgb(89.251709%, 51.013184%, 46.83075%)" offset="0.238281"/><stop stop-opacity="1" stop-color="rgb(89.076233%, 50.917053%, 47.103882%)" offset="0.242188"/><stop stop-opacity="1" stop-color="rgb(88.899231%, 50.820923%, 47.375488%)" offset="0.246094"/><stop stop-opacity="1" stop-color="rgb(88.723755%, 50.724792%, 47.648621%)" offset="0.25"/><stop stop-opacity="1" stop-color="rgb(88.546753%, 50.627136%, 47.921753%)" offset="0.253906"/><stop stop-opacity="1" stop-color="rgb(88.371277%, 50.531006%, 48.194885%)" offset="0.257812"/><stop stop-opacity="1" stop-color="rgb(88.194275%, 50.434875%, 48.466492%)" offset="0.261719"/><stop stop-opacity="1" stop-color="rgb(88.018799%, 50.338745%, 48.739624%)" offset="0.265625"/><stop stop-opacity="1" stop-color="rgb(87.843323%, 50.241089%, 49.012756%)" offset="0.269531"/><stop stop-opacity="1" stop-color="rgb(87.667847%, 50.144958%, 49.285889%)" offset="0.273437"/><stop stop-opacity="1" stop-color="rgb(87.490845%, 50.048828%, 49.557495%)" offset="0.277344"/><stop stop-opacity="1" stop-color="rgb(87.315369%, 49.952698%, 49.830627%)" offset="0.28125"/><stop stop-opacity="1" stop-color="rgb(87.138367%, 49.855042%, 50.102234%)" offset="0.285156"/><stop stop-opacity="1" stop-color="rgb(86.962891%, 49.758911%, 50.375366%)" offset="0.289062"/><stop stop-opacity="1" stop-color="rgb(86.785889%, 49.662781%, 50.648499%)" offset="0.292969"/><stop stop-opacity="1" stop-color="rgb(86.610413%, 49.56665%, 50.921631%)" offset="0.296875"/><stop stop-opacity="1" stop-color="rgb(86.433411%, 49.468994%, 51.193237%)" offset="0.300781"/><stop stop-opacity="1" stop-color="rgb(86.257935%, 49.372864%, 51.46637%)" offset="0.304687"/><stop stop-opacity="1" stop-color="rgb(86.080933%, 49.276733%, 51.737976%)" offset="0.308594"/><stop stop-opacity="1" stop-color="rgb(85.905457%, 49.180603%, 52.011108%)" offset="0.3125"/><stop stop-opacity="1" stop-color="rgb(85.728455%, 49.082947%, 52.284241%)" offset="0.316406"/><stop stop-opacity="1" stop-color="rgb(85.552979%, 48.986816%, 52.557373%)" offset="0.320312"/><stop stop-opacity="1" stop-color="rgb(85.375977%, 48.890686%, 52.828979%)" offset="0.324219"/><stop stop-opacity="1" stop-color="rgb(85.2005%, 48.794556%, 53.102112%)" offset="0.328125"/><stop stop-opacity="1" stop-color="rgb(85.023499%, 48.698425%, 53.375244%)" offset="0.332031"/><stop stop-opacity="1" stop-color="rgb(84.848022%, 48.602295%, 53.648376%)" offset="0.335937"/><stop stop-opacity="1" stop-color="rgb(84.671021%, 48.504639%, 53.919983%)" offset="0.339844"/><stop stop-opacity="1" stop-color="rgb(84.495544%, 48.408508%, 54.193115%)" offset="0.34375"/><stop stop-opacity="1" stop-color="rgb(84.318542%, 48.312378%, 54.464722%)" offset="0.347656"/><stop stop-opacity="1" stop-color="rgb(84.143066%, 48.216248%, 54.737854%)" offset="0.351562"/><stop stop-opacity="1" stop-color="rgb(83.96759%, 48.118591%, 55.010986%)" offset="0.355469"/><stop stop-opacity="1" stop-color="rgb(83.792114%, 48.022461%, 55.284119%)" offset="0.359375"/><stop stop-opacity="1" stop-color="rgb(83.615112%, 47.926331%, 55.555725%)" offset="0.363281"/><stop stop-opacity="1" stop-color="rgb(83.439636%, 47.8302%, 55.828857%)" offset="0.367187"/><stop stop-opacity="1" stop-color="rgb(83.262634%, 47.732544%, 56.100464%)" offset="0.371094"/><stop stop-opacity="1" stop-color="rgb(83.087158%, 47.636414%, 56.373596%)" offset="0.375"/><stop stop-opacity="1" stop-color="rgb(82.910156%, 47.540283%, 56.646729%)" offset="0.378906"/><stop stop-opacity="1" stop-color="rgb(82.73468%, 47.444153%, 56.919861%)" offset="0.382812"/><stop stop-opacity="1" stop-color="rgb(82.557678%, 47.346497%, 57.191467%)" offset="0.386719"/><stop stop-opacity="1" stop-color="rgb(82.382202%, 47.250366%, 57.4646%)" offset="0.390625"/><stop stop-opacity="1" stop-color="rgb(82.2052%, 47.154236%, 57.737732%)" offset="0.394531"/><stop stop-opacity="1" stop-color="rgb(82.029724%, 47.058105%, 58.010864%)" offset="0.398437"/><stop stop-opacity="1" stop-color="rgb(81.852722%, 46.960449%, 58.282471%)" offset="0.402344"/><stop stop-opacity="1" stop-color="rgb(81.677246%, 46.864319%, 58.555603%)" offset="0.40625"/><stop stop-opacity="1" stop-color="rgb(81.500244%, 46.768188%, 58.827209%)" offset="0.410156"/><stop stop-opacity="1" stop-color="rgb(81.324768%, 46.672058%, 59.100342%)" offset="0.414062"/><stop stop-opacity="1" stop-color="rgb(81.147766%, 46.574402%, 59.373474%)" offset="0.417969"/><stop stop-opacity="1" stop-color="rgb(80.97229%, 46.478271%, 59.646606%)" offset="0.421875"/><stop stop-opacity="1" stop-color="rgb(80.795288%, 46.382141%, 59.918213%)" offset="0.425781"/><stop stop-opacity="1" stop-color="rgb(80.619812%, 46.286011%, 60.191345%)" offset="0.429687"/><stop stop-opacity="1" stop-color="rgb(80.44281%, 46.18988%, 60.462952%)" offset="0.433594"/><stop stop-opacity="1" stop-color="rgb(80.267334%, 46.09375%, 60.736084%)" offset="0.4375"/><stop stop-opacity="1" stop-color="rgb(80.091858%, 45.996094%, 61.009216%)" offset="0.441406"/><stop stop-opacity="1" stop-color="rgb(79.916382%, 45.899963%, 61.282349%)" offset="0.445312"/><stop stop-opacity="1" stop-color="rgb(79.73938%, 45.803833%, 61.553955%)" offset="0.449219"/><stop stop-opacity="1" stop-color="rgb(79.563904%, 45.707703%, 61.827087%)" offset="0.453125"/><stop stop-opacity="1" stop-color="rgb(79.386902%, 45.610046%, 62.10022%)" offset="0.457031"/><stop stop-opacity="1" stop-color="rgb(79.211426%, 45.513916%, 62.373352%)" offset="0.460937"/><stop stop-opacity="1" stop-color="rgb(79.034424%, 45.417786%, 62.644958%)" offset="0.464844"/><stop stop-opacity="1" stop-color="rgb(78.858948%, 45.321655%, 62.918091%)" offset="0.46875"/><stop stop-opacity="1" stop-color="rgb(78.681946%, 45.223999%, 63.189697%)" offset="0.472656"/><stop stop-opacity="1" stop-color="rgb(78.50647%, 45.127869%, 63.46283%)" offset="0.476562"/><stop stop-opacity="1" stop-color="rgb(78.329468%, 45.031738%, 63.735962%)" offset="0.480469"/><stop stop-opacity="1" stop-color="rgb(78.153992%, 44.935608%, 64.009094%)" offset="0.484375"/><stop stop-opacity="1" stop-color="rgb(77.97699%, 44.837952%, 64.280701%)" offset="0.488281"/><stop stop-opacity="1" stop-color="rgb(77.801514%, 44.741821%, 64.553833%)" offset="0.492187"/><stop stop-opacity="1" stop-color="rgb(77.624512%, 44.645691%, 64.825439%)" offset="0.496094"/><stop stop-opacity="1" stop-color="rgb(77.449036%, 44.549561%, 65.098572%)" offset="0.5"/><stop stop-opacity="1" stop-color="rgb(77.272034%, 44.451904%, 65.371704%)" offset="0.503906"/><stop stop-opacity="1" stop-color="rgb(77.096558%, 44.355774%, 65.644836%)" offset="0.507813"/><stop stop-opacity="1" stop-color="rgb(76.919556%, 44.259644%, 65.916443%)" offset="0.511719"/><stop stop-opacity="1" stop-color="rgb(76.74408%, 44.163513%, 66.189575%)" offset="0.515625"/><stop stop-opacity="1" stop-color="rgb(76.567078%, 44.065857%, 66.462708%)" offset="0.519531"/><stop stop-opacity="1" stop-color="rgb(76.391602%, 43.969727%, 66.73584%)" offset="0.523438"/><stop stop-opacity="1" stop-color="rgb(76.2146%, 43.873596%, 67.007446%)" offset="0.527344"/><stop stop-opacity="1" stop-color="rgb(76.039124%, 43.777466%, 67.280579%)" offset="0.53125"/><stop stop-opacity="1" stop-color="rgb(75.863647%, 43.67981%, 67.552185%)" offset="0.535156"/><stop stop-opacity="1" stop-color="rgb(75.688171%, 43.583679%, 67.825317%)" offset="0.539062"/><stop stop-opacity="1" stop-color="rgb(75.511169%, 43.487549%, 68.09845%)" offset="0.542969"/><stop stop-opacity="1" stop-color="rgb(75.335693%, 43.391418%, 68.371582%)" offset="0.546875"/><stop stop-opacity="1" stop-color="rgb(75.158691%, 43.295288%, 68.643188%)" offset="0.550781"/><stop stop-opacity="1" stop-color="rgb(74.983215%, 43.199158%, 68.916321%)" offset="0.554688"/><stop stop-opacity="1" stop-color="rgb(74.806213%, 43.101501%, 69.187927%)" offset="0.558594"/><stop stop-opacity="1" stop-color="rgb(74.630737%, 43.005371%, 69.46106%)" offset="0.5625"/><stop stop-opacity="1" stop-color="rgb(74.453735%, 42.909241%, 69.734192%)" offset="0.566406"/><stop stop-opacity="1" stop-color="rgb(74.278259%, 42.81311%, 70.007324%)" offset="0.570312"/><stop stop-opacity="1" stop-color="rgb(74.101257%, 42.715454%, 70.278931%)" offset="0.574219"/><stop stop-opacity="1" stop-color="rgb(73.925781%, 42.619324%, 70.552063%)" offset="0.578125"/><stop stop-opacity="1" stop-color="rgb(73.748779%, 42.523193%, 70.825195%)" offset="0.582031"/><stop stop-opacity="1" stop-color="rgb(73.573303%, 42.427063%, 71.098328%)" offset="0.585938"/><stop stop-opacity="1" stop-color="rgb(73.396301%, 42.329407%, 71.369934%)" offset="0.589844"/><stop stop-opacity="1" stop-color="rgb(73.220825%, 42.233276%, 71.643066%)" offset="0.59375"/><stop stop-opacity="1" stop-color="rgb(73.043823%, 42.137146%, 71.914673%)" offset="0.597656"/><stop stop-opacity="1" stop-color="rgb(72.868347%, 42.041016%, 72.187805%)" offset="0.601562"/><stop stop-opacity="1" stop-color="rgb(72.691345%, 41.943359%, 72.460938%)" offset="0.605469"/><stop stop-opacity="1" stop-color="rgb(72.515869%, 41.847229%, 72.73407%)" offset="0.609375"/><stop stop-opacity="1" stop-color="rgb(72.338867%, 41.751099%, 73.005676%)" offset="0.613281"/><stop stop-opacity="1" stop-color="rgb(72.163391%, 41.654968%, 73.278809%)" offset="0.617188"/><stop stop-opacity="1" stop-color="rgb(71.987915%, 41.557312%, 73.550415%)" offset="0.621094"/><stop stop-opacity="1" stop-color="rgb(71.812439%, 41.461182%, 73.823547%)" offset="0.625"/><stop stop-opacity="1" stop-color="rgb(71.635437%, 41.365051%, 74.09668%)" offset="0.628906"/><stop stop-opacity="1" stop-color="rgb(71.459961%, 41.268921%, 74.369812%)" offset="0.632812"/><stop stop-opacity="1" stop-color="rgb(71.282959%, 41.171265%, 74.641418%)" offset="0.636719"/><stop stop-opacity="1" stop-color="rgb(71.107483%, 41.075134%, 74.914551%)" offset="0.640625"/><stop stop-opacity="1" stop-color="rgb(70.930481%, 40.979004%, 75.187683%)" offset="0.644531"/><stop stop-opacity="1" stop-color="rgb(70.755005%, 40.882874%, 75.460815%)" offset="0.648438"/><stop stop-opacity="1" stop-color="rgb(70.578003%, 40.786743%, 75.732422%)" offset="0.652344"/><stop stop-opacity="1" stop-color="rgb(70.402527%, 40.690613%, 76.005554%)" offset="0.65625"/><stop stop-opacity="1" stop-color="rgb(70.225525%, 40.592957%, 76.277161%)" offset="0.660156"/><stop stop-opacity="1" stop-color="rgb(70.050049%, 40.496826%, 76.550293%)" offset="0.664062"/><stop stop-opacity="1" stop-color="rgb(69.873047%, 40.400696%, 76.823425%)" offset="0.667969"/><stop stop-opacity="1" stop-color="rgb(69.697571%, 40.304565%, 77.096558%)" offset="0.671875"/><stop stop-opacity="1" stop-color="rgb(69.520569%, 40.206909%, 77.368164%)" offset="0.675781"/><stop stop-opacity="1" stop-color="rgb(69.345093%, 40.110779%, 77.641296%)" offset="0.679688"/><stop stop-opacity="1" stop-color="rgb(69.168091%, 40.014648%, 77.912903%)" offset="0.683594"/><stop stop-opacity="1" stop-color="rgb(68.992615%, 39.918518%, 78.186035%)" offset="0.6875"/><stop stop-opacity="1" stop-color="rgb(68.815613%, 39.820862%, 78.459167%)" offset="0.691406"/><stop stop-opacity="1" stop-color="rgb(68.640137%, 39.724731%, 78.7323%)" offset="0.695312"/><stop stop-opacity="1" stop-color="rgb(68.463135%, 39.628601%, 79.003906%)" offset="0.699219"/><stop stop-opacity="1" stop-color="rgb(68.287659%, 39.532471%, 79.277039%)" offset="0.703125"/><stop stop-opacity="1" stop-color="rgb(68.112183%, 39.434814%, 79.550171%)" offset="0.707031"/><stop stop-opacity="1" stop-color="rgb(67.936707%, 39.338684%, 79.823303%)" offset="0.710938"/><stop stop-opacity="1" stop-color="rgb(67.759705%, 39.242554%, 80.09491%)" offset="0.714844"/><stop stop-opacity="1" stop-color="rgb(67.584229%, 39.146423%, 80.368042%)" offset="0.71875"/><stop stop-opacity="1" stop-color="rgb(67.407227%, 39.048767%, 80.639648%)" offset="0.722656"/><stop stop-opacity="1" stop-color="rgb(67.23175%, 38.952637%, 80.912781%)" offset="0.726562"/><stop stop-opacity="1" stop-color="rgb(67.054749%, 38.856506%, 81.185913%)" offset="0.730469"/><stop stop-opacity="1" stop-color="rgb(66.879272%, 38.760376%, 81.459045%)" offset="0.734375"/><stop stop-opacity="1" stop-color="rgb(66.702271%, 38.66272%, 81.730652%)" offset="0.738281"/><stop stop-opacity="1" stop-color="rgb(66.526794%, 38.566589%, 82.003784%)" offset="0.742188"/><stop stop-opacity="1" stop-color="rgb(66.349792%, 38.470459%, 82.275391%)" offset="0.746094"/><stop stop-opacity="1" stop-color="rgb(66.174316%, 38.374329%, 82.548523%)" offset="0.75"/><stop stop-opacity="1" stop-color="rgb(65.997314%, 38.276672%, 82.821655%)" offset="0.753906"/><stop stop-opacity="1" stop-color="rgb(65.821838%, 38.180542%, 83.094788%)" offset="0.757812"/><stop stop-opacity="1" stop-color="rgb(65.644836%, 38.084412%, 83.366394%)" offset="0.761719"/><stop stop-opacity="1" stop-color="rgb(65.46936%, 37.988281%, 83.639526%)" offset="0.765625"/><stop stop-opacity="1" stop-color="rgb(65.292358%, 37.892151%, 83.912659%)" offset="0.769531"/><stop stop-opacity="1" stop-color="rgb(65.116882%, 37.796021%, 84.185791%)" offset="0.773438"/><stop stop-opacity="1" stop-color="rgb(64.93988%, 37.698364%, 84.457397%)" offset="0.777344"/><stop stop-opacity="1" stop-color="rgb(64.764404%, 37.602234%, 84.73053%)" offset="0.78125"/><stop stop-opacity="1" stop-color="rgb(64.587402%, 37.506104%, 85.002136%)" offset="0.785156"/><stop stop-opacity="1" stop-color="rgb(64.411926%, 37.409973%, 85.275269%)" offset="0.789062"/><stop stop-opacity="1" stop-color="rgb(64.234924%, 37.312317%, 85.548401%)" offset="0.792969"/><stop stop-opacity="1" stop-color="rgb(64.059448%, 37.216187%, 85.821533%)" offset="0.796875"/><stop stop-opacity="1" stop-color="rgb(63.883972%, 37.120056%, 86.09314%)" offset="0.800781"/><stop stop-opacity="1" stop-color="rgb(63.708496%, 37.023926%, 86.366272%)" offset="0.804688"/><stop stop-opacity="1" stop-color="rgb(63.531494%, 36.92627%, 86.637878%)" offset="0.808594"/><stop stop-opacity="1" stop-color="rgb(63.356018%, 36.830139%, 86.911011%)" offset="0.8125"/><stop stop-opacity="1" stop-color="rgb(63.179016%, 36.734009%, 87.184143%)" offset="0.816406"/><stop stop-opacity="1" stop-color="rgb(63.00354%, 36.637878%, 87.457275%)" offset="0.820312"/><stop stop-opacity="1" stop-color="rgb(62.826538%, 36.540222%, 87.728882%)" offset="0.824219"/><stop stop-opacity="1" stop-color="rgb(62.651062%, 36.444092%, 88.002014%)" offset="0.828125"/><stop stop-opacity="1" stop-color="rgb(62.47406%, 36.347961%, 88.275146%)" offset="0.832031"/><stop stop-opacity="1" stop-color="rgb(62.298584%, 36.251831%, 88.548279%)" offset="0.835938"/><stop stop-opacity="1" stop-color="rgb(62.121582%, 36.154175%, 88.819885%)" offset="0.839844"/><stop stop-opacity="1" stop-color="rgb(61.946106%, 36.058044%, 89.093018%)" offset="0.84375"/><stop stop-opacity="1" stop-color="rgb(61.769104%, 35.961914%, 89.364624%)" offset="0.847656"/><stop stop-opacity="1" stop-color="rgb(61.593628%, 35.865784%, 89.637756%)" offset="0.851562"/><stop stop-opacity="1" stop-color="rgb(61.416626%, 35.768127%, 89.910889%)" offset="0.855469"/><stop stop-opacity="1" stop-color="rgb(61.24115%, 35.671997%, 90.184021%)" offset="0.859375"/><stop stop-opacity="1" stop-color="rgb(61.064148%, 35.575867%, 90.455627%)" offset="0.863281"/><stop stop-opacity="1" stop-color="rgb(60.888672%, 35.479736%, 90.72876%)" offset="0.867188"/><stop stop-opacity="1" stop-color="rgb(60.71167%, 35.383606%, 91.000366%)" offset="0.871094"/><stop stop-opacity="1" stop-color="rgb(60.536194%, 35.287476%, 91.273499%)" offset="0.875"/><stop stop-opacity="1" stop-color="rgb(60.359192%, 35.189819%, 91.546631%)" offset="0.878906"/><stop stop-opacity="1" stop-color="rgb(60.183716%, 35.093689%, 91.819763%)" offset="0.882812"/><stop stop-opacity="1" stop-color="rgb(60.00824%, 34.997559%, 92.09137%)" offset="0.886719"/><stop stop-opacity="1" stop-color="rgb(59.832764%, 34.901428%, 92.364502%)" offset="0.890625"/><stop stop-opacity="1" stop-color="rgb(59.655762%, 34.803772%, 92.637634%)" offset="0.894531"/><stop stop-opacity="1" stop-color="rgb(59.480286%, 34.707642%, 92.910767%)" offset="0.898438"/><stop stop-opacity="1" stop-color="rgb(59.303284%, 34.611511%, 93.182373%)" offset="0.902344"/><stop stop-opacity="1" stop-color="rgb(59.127808%, 34.515381%, 93.455505%)" offset="0.90625"/><stop stop-opacity="1" stop-color="rgb(58.950806%, 34.417725%, 93.727112%)" offset="0.910156"/><stop stop-opacity="1" stop-color="rgb(58.77533%, 34.321594%, 94.000244%)" offset="0.914062"/><stop stop-opacity="1" stop-color="rgb(58.598328%, 34.225464%, 94.273376%)" offset="0.917969"/><stop stop-opacity="1" stop-color="rgb(58.422852%, 34.129333%, 94.546509%)" offset="0.921875"/><stop stop-opacity="1" stop-color="rgb(58.24585%, 34.031677%, 94.818115%)" offset="0.925781"/><stop stop-opacity="1" stop-color="rgb(58.070374%, 33.935547%, 95.091248%)" offset="0.929688"/><stop stop-opacity="1" stop-color="rgb(57.893372%, 33.839417%, 95.362854%)" offset="0.933594"/><stop stop-opacity="1" stop-color="rgb(57.717896%, 33.743286%, 95.635986%)" offset="0.9375"/><stop stop-opacity="1" stop-color="rgb(57.540894%, 33.64563%, 95.909119%)" offset="0.941406"/><stop stop-opacity="1" stop-color="rgb(57.365417%, 33.5495%, 96.182251%)" offset="0.945312"/><stop stop-opacity="1" stop-color="rgb(57.188416%, 33.453369%, 96.453857%)" offset="0.949219"/><stop stop-opacity="1" stop-color="rgb(57.012939%, 33.357239%, 96.72699%)" offset="0.953125"/><stop stop-opacity="1" stop-color="rgb(56.835938%, 33.259583%, 97.000122%)" offset="0.957031"/><stop stop-opacity="1" stop-color="rgb(56.660461%, 33.163452%, 97.273254%)" offset="0.960938"/><stop stop-opacity="1" stop-color="rgb(56.483459%, 33.067322%, 97.544861%)" offset="0.964844"/><stop stop-opacity="1" stop-color="rgb(56.307983%, 32.971191%, 97.817993%)" offset="0.96875"/><stop stop-opacity="1" stop-color="rgb(56.132507%, 32.873535%, 98.0896%)" offset="0.972656"/><stop stop-opacity="1" stop-color="rgb(55.957031%, 32.777405%, 98.362732%)" offset="0.976562"/><stop stop-opacity="1" stop-color="rgb(55.780029%, 32.681274%, 98.635864%)" offset="0.980469"/><stop stop-opacity="1" stop-color="rgb(55.604553%, 32.585144%, 98.908997%)" offset="0.984375"/><stop stop-opacity="1" stop-color="rgb(55.427551%, 32.489014%, 99.180603%)" offset="0.988281"/><stop stop-opacity="1" stop-color="rgb(55.252075%, 32.392883%, 99.453735%)" offset="0.992188"/><stop stop-opacity="1" stop-color="rgb(55.075073%, 32.295227%, 99.725342%)" offset="0.996094"/><stop stop-opacity="1" stop-color="rgb(54.899597%, 32.199097%, 99.998474%)" offset="1"/></linearGradient></defs><g fill="#000000" fill-opacity="1"><g transform="translate(26.608135, 183.959471)"><g><path d="M 80.078125 -8.769531 L 20.628906 -131.730469 L 10.394531 -131.730469 L 10.394531 0 L 17.21875 0 L 17.21875 -123.125 L 76.667969 0 L 86.902344 0 L 86.902344 -131.730469 L 80.078125 -131.730469 Z M 80.078125 -8.769531 "/></g></g></g><g fill="#000000" fill-opacity="1"><g transform="translate(123.902801, 183.959471)"><g><path d="M 38.007812 -89.664062 C 29.5625 -89.664062 19.492188 -87.386719 12.183594 -83.652344 L 10.882812 -76.832031 C 19.003906 -80.890625 28.589844 -83.328125 36.710938 -83.328125 C 53.601562 -83.328125 60.425781 -75.042969 60.425781 -60.425781 L 60.425781 -50.355469 C 52.140625 -52.140625 44.507812 -52.953125 38.820312 -52.953125 C 17.542969 -52.953125 5.683594 -44.34375 5.683594 -26.3125 L 5.683594 -25.339844 C 5.683594 -6.984375 17.542969 1.785156 39.144531 1.785156 C 46.941406 1.785156 57.988281 0.324219 67.246094 -1.949219 L 67.246094 -60.910156 C 67.246094 -81.539062 56.039062 -89.664062 38.007812 -89.664062 Z M 12.667969 -26.152344 C 12.667969 -39.957031 21.765625 -46.941406 39.632812 -46.941406 C 44.832031 -46.941406 53.113281 -46.128906 60.425781 -44.34375 L 60.425781 -6.820312 C 53.277344 -5.199219 44.992188 -4.386719 39.472656 -4.386719 C 21.765625 -4.386719 12.667969 -11.53125 12.667969 -25.5 Z M 12.667969 -26.152344 "/></g></g></g><g fill="#000000" fill-opacity="1"><g transform="translate(200.569066, 183.959471)"><g><path d="M 32.8125 1.785156 C 52.464844 1.785156 63.347656 -6.660156 63.347656 -21.765625 C 63.347656 -36.222656 55.714844 -41.90625 38.984375 -47.429688 L 32.972656 -49.378906 C 19.328125 -53.601562 14.945312 -58.476562 14.945312 -67.894531 C 14.945312 -77.96875 22.902344 -83.164062 35.734375 -83.164062 C 43.695312 -83.164062 51.003906 -81.703125 58.476562 -77.640625 L 60.101562 -83.652344 C 52.789062 -87.714844 44.507812 -89.5 35.246094 -89.5 C 18.679688 -89.5 8.121094 -81.703125 8.121094 -67.894531 C 8.121094 -55.390625 13.644531 -48.40625 29.238281 -43.53125 L 35.898438 -41.257812 C 51.492188 -36.382812 56.527344 -32 56.527344 -21.441406 C 56.527344 -9.097656 46.128906 -4.546875 32.160156 -4.546875 C 24.203125 -4.546875 15.59375 -6.171875 8.285156 -10.070312 L 6.660156 -4.0625 C 14.292969 -0.164062 23.226562 1.785156 32.8125 1.785156 Z M 32.8125 1.785156 "/></g></g></g><g fill="#000000" fill-opacity="1"><g transform="translate(270.413334, 183.959471)"><g><path d="M 40.933594 -89.824219 C 34.597656 -89.824219 25.988281 -88.851562 17.542969 -86.902344 L 17.542969 -131.730469 L 10.71875 -131.730469 L 10.71875 0 L 17.542969 0 L 17.542969 -80.242188 C 25.339844 -82.351562 33.949219 -83.488281 40.28125 -83.488281 C 53.925781 -83.488281 62.699219 -78.292969 62.699219 -63.835938 L 62.699219 0 L 69.683594 0 L 69.683594 -64.324219 C 69.683594 -82.839844 57.988281 -89.824219 40.933594 -89.824219 Z M 40.933594 -89.824219 "/></g></g></g><g fill="#000000" fill-opacity="1"><g transform="translate(35.576947, 249.426562)"><g><path d="M 27.863281 0 C 48.308594 0 58.671875 -10.363281 58.671875 -28.636719 L 58.671875 -28.773438 C 58.671875 -46.558594 48.867188 -56.78125 27.863281 -56.78125 L 3.78125 -56.78125 L 3.78125 0 Z M 14.84375 -46.488281 L 27.933594 -46.488281 C 40.675781 -46.488281 47.398438 -40.257812 47.398438 -28.773438 L 47.398438 -28.636719 C 47.398438 -16.664062 40.605469 -10.292969 27.933594 -10.292969 L 14.84375 -10.292969 Z M 14.84375 -46.488281 "/></g></g></g><g fill="#000000" fill-opacity="1"><g transform="translate(97.112023, 249.426562)"><g><path d="M 49.429688 -18.832031 C 49.429688 -33.886719 39.90625 -41.726562 26.253906 -41.726562 C 11.832031 -41.726562 2.800781 -32.765625 2.800781 -20.445312 L 2.800781 -20.304688 C 2.800781 -7.140625 12.742188 1.050781 27.375 1.050781 C 36.265625 1.050781 43.265625 -1.609375 47.539062 -4.128906 L 42.707031 -12.742188 C 38.996094 -10.570312 33.746094 -8.679688 27.726562 -8.679688 C 20.234375 -8.679688 15.542969 -12.390625 14.28125 -17.78125 L 49.429688 -17.78125 Z M 26.183594 -32.765625 C 32.554688 -32.765625 36.964844 -29.40625 38.015625 -24.644531 L 14.492188 -24.644531 C 15.960938 -29.753906 20.304688 -32.765625 26.183594 -32.765625 Z M 26.183594 -32.765625 "/></g></g></g><g fill="#000000" fill-opacity="1"><g transform="translate(149.336347, 249.426562)"><g><path d="M 14.914062 15.402344 L 14.914062 -0.210938 C 17.78125 0.421875 21.703125 0.910156 24.996094 0.910156 C 40.257812 0.910156 49.359375 -7.5625 49.359375 -20.304688 L 49.359375 -20.445312 C 49.359375 -33.253906 39.625 -41.796875 24.433594 -41.796875 C 16.453125 -41.796875 9.941406 -40.117188 3.78125 -38.226562 L 3.78125 15.402344 Z M 24.574219 -8.960938 C 21.214844 -8.960938 17.433594 -9.589844 14.914062 -10.152344 L 14.914062 -30.875 C 17.78125 -31.503906 21.214844 -31.925781 24.433594 -31.925781 C 33.324219 -31.925781 38.226562 -27.304688 38.226562 -20.445312 L 38.226562 -20.304688 C 38.226562 -13.441406 33.535156 -8.960938 24.574219 -8.960938 Z M 24.574219 -8.960938 "/></g></g></g><g fill="#000000" fill-opacity="1"><g transform="translate(201.539635, 249.426562)"><g/></g></g><g fill="#000000" fill-opacity="1"><g transform="translate(215.120756, 249.426562)"><g/></g></g><g fill="#000000" fill-opacity="1"><g transform="translate(228.701877, 249.426562)"><g/></g></g><g fill="#000000" fill-opacity="1"><g transform="translate(242.261011, 249.426562)"><g><path d="M 14.914062 0 L 14.914062 -29.40625 C 16.734375 -29.753906 21.355469 -30.035156 23.945312 -30.035156 L 33.324219 -30.035156 L 33.324219 -40.328125 L 25.414062 -40.328125 C 20.863281 -40.328125 11.132812 -39.976562 3.78125 -38.714844 L 3.78125 0 Z M 14.914062 0 "/></g></g></g><g fill="#000000" fill-opacity="1"><g transform="translate(278.243984, 249.426562)"><g><path d="M 39.558594 0 L 39.558594 -10.292969 L 28.003906 -10.292969 C 23.382812 -10.292969 21.144531 -11.832031 21.144531 -16.453125 L 21.144531 -29.964844 L 39.488281 -29.964844 L 39.488281 -40.1875 L 21.144531 -40.1875 L 21.144531 -52.507812 L 9.941406 -52.507812 L 9.941406 -40.1875 L 1.609375 -40.1875 L 1.609375 -29.964844 L 9.941406 -29.964844 L 9.941406 -12.953125 C 9.941406 -3.640625 14.003906 0 23.105469 0 Z M 39.558594 0 "/></g></g></g><g fill="#000000" fill-opacity="1"><g transform="translate(320.737494, 249.426562)"><g><path d="M 9.382812 -45.4375 C 12.460938 -45.4375 14.914062 -46.976562 14.914062 -50.339844 C 14.914062 -53.347656 12.601562 -55.167969 9.382812 -55.167969 C 6.160156 -55.167969 3.851562 -53.347656 3.851562 -50.339844 C 3.851562 -46.976562 6.300781 -45.4375 9.382812 -45.4375 Z M 14.914062 0 L 14.914062 -40.1875 L 3.78125 -40.1875 L 3.78125 0 Z M 14.914062 0 "/></g></g></g><g clip-path="url(#id1)"><g clip-path="url(#id2)"><path fill="url(#id3)" d="M 199.664062 206.308594 L 199.664062 251.308594 L 244.664062 251.308594 L 244.664062 206.308594 Z M 199.664062 206.308594 " fill-rule="nonzero"/></g></g></svg>